<?xml version="1.0" encoding="UTF-8"?>
<svg xmlns="http://www.w3.org/2000/svg" width="920" height="480" viewBox="0 0 920 480" role="img" aria-labelledby="title description"><title id="title">Agile sprint burndown chart</title><desc id="description">Remaining tasks per sprint, generated from Agile backlog records.</desc><style>text{font:12px system-ui,sans-serif;fill:#24313d}.title{font-size:16px;font-weight:700}.legend{fill:#536471}.axis{stroke:#94a3b8;stroke-width:1}.ideal{stroke:#94a3b8;stroke-width:2;stroke-dasharray:5 4}.actual{fill:none;stroke:#136f63;stroke-width:3}.notice{fill:#8a4b08;font-weight:600}</style><rect width="100%" height="100%" fill="#fff"/><g><text x="30" y="48" class="title">Sprint 1</text><text x="30" y="67">2026-09-09 to 2026-09-16 · 3 tasks</text><line x1="150" y1="60" x2="150" y2="170" class="axis"/><line x1="150" y1="170" x2="870" y2="170" class="axis"/><text x="138" y="64" text-anchor="end">3</text><text x="138" y="174" text-anchor="end">0</text><text x="150" y="224" text-anchor="start">2026-09-09</text><text x="870" y="224" text-anchor="end">2026-09-16</text><line x1="150" y1="60" x2="870" y2="170" class="ideal"/><polyline points="150.0,60.0 355.7,60.0 355.7,96.7 870.0,96.7 870.0,170.0 870.0,170.0" class="actual"/><circle cx="355.7" cy="185" r="4" fill="#136f63"/><text x="355.7" y="203" text-anchor="middle">#1</text><circle cx="870.0" cy="185" r="4" fill="#136f63"/><text x="870.0" y="203" text-anchor="middle">#2, #4</text><text x="700" y="48" class="legend">— actual · ┄ ideal</text></g><g><text x="30" y="278" class="title">Sprint 2</text><text x="30" y="297">2026-09-17 to 2026-09-20 · 3 tasks</text><line x1="150" y1="290" x2="150" y2="400" class="axis"/><line x1="150" y1="400" x2="870" y2="400" class="axis"/><text x="138" y="294" text-anchor="end">3</text><text x="138" y="404" text-anchor="end">0</text><text x="150" y="454" text-anchor="start">2026-09-17</text><text x="870" y="454" text-anchor="end">2026-09-20</text><line x1="150" y1="290" x2="870" y2="400" class="ideal"/><polyline points="150.0,290.0 870.0,290.0" class="actual"/><text x="510" y="355" text-anchor="middle" class="notice">No completed tasks recorded</text><text x="700" y="278" class="legend">— actual · ┄ ideal</text></g></svg>
